<?xml version="1.0" encoding="utf-8"?>
<!-- Generator: Adobe Illustrator 18.1.1, SVG Export Plug-In . SVG Version: 6.00 Build 0)  -->
<svg version="1.1" xmlns="http://www.w3.org/2000/svg" xmlns:xlink="http://www.w3.org/1999/xlink" x="0px" y="0px"
	 viewBox="0 0 864 720" enable-background="new 0 0 864 720" xml:space="preserve">
<g id="lines">
	<g>
		
			<rect x="219.2" y="262.4" transform="matrix(0.8672 0.498 -0.498 0.8672 233.621 -54.8645)" fill="#231F20" width="1" height="296.2"/>
	</g>
	<g>
		
			<rect x="185.4" y="400.5" transform="matrix(0.1003 0.995 -0.995 0.1003 673.3752 57.3058)" fill="#231F20" width="239.2" height="1"/>
	</g>
	<g>
		
			<rect x="214" y="437" transform="matrix(0.5896 0.8077 -0.8077 0.5896 520.2234 -148.7723)" fill="#231F20" width="385" height="1"/>
	</g>
	<g>
		
			<rect x="270.1" y="364.5" transform="matrix(0.855 0.5186 -0.5186 0.855 251.6522 -170.1594)" fill="#231F20" width="320.1" height="1"/>
	</g>
	<g>
		
			<rect x="292.1" y="295" transform="matrix(0.9904 0.1385 -0.1385 0.9904 44.6971 -51.1143)" fill="#231F20" width="194.9" height="1"/>
	</g>
	<g>
		
			<rect x="292.9" y="286" transform="matrix(0.9997 2.607805e-02 -2.607805e-02 0.9997 7.6297 -12.0419)" fill="#231F20" width="345.1" height="1"/>
	</g>
	<g>
		
			<rect x="240.7" y="257.2" transform="matrix(0.6317 0.7752 -0.7752 0.6317 340.3771 -67.4334)" fill="#231F20" width="1" height="134.6"/>
	</g>
	<g>
		
			<rect x="283.7" y="345.5" transform="matrix(0.959 0.2835 -0.2835 0.959 118.9872 -130.2415)" fill="#231F20" width="451.5" height="1"/>
	</g>
	<g>
		
			<rect x="475.2" y="61.9" transform="matrix(0.1856 0.9826 -0.9826 0.1856 630.5817 -265.8257)" fill="#231F20" width="1" height="371.2"/>
	</g>
</g>
<g id="text">
	<g>
		<path d="M102.4,103.5c3.3,0,5.8,2.5,5.8,5.8s-2.4,5.8-5.8,5.8c-3.3,0-5.8-2.5-5.8-5.8S99,103.5,102.4,103.5z M106.8,119.7V156
			h-8.9v-36.3H106.8z"/>
		<path d="M124.8,119.7v5.8c2.7-3.8,6.6-6.4,11.2-6.4c6.5,0,11.2,3.7,11.2,10.9V156h-8.9v-23.3c0-4.3-2.2-6-5.2-6
			c-4.3,0-8.3,5.2-8.3,14.8V156h-8.9v-36.3H124.8z"/>
		<path d="M178.5,155.3c-2,0.9-4,1.3-5.9,1.3c-8.2,0-13.3-4.4-13.3-13.4v-15.8h-5.6v-7.6h5.6v-9.1l8.9-5.6v14.7h9.6v7.6h-9.6V143
			c0,4.5,1.7,5.9,4.8,5.9c1.2,0,2.2-0.2,3.5-0.9L178.5,155.3z"/>
		<path d="M217.7,140.7h-25c0.2,4,3,8.2,8.6,8.2c4.1,0,6.6-1.9,8.8-5.6l7.2,2.7c-2.8,6.4-7.7,10.6-16.5,10.6
			c-12.5,0-17.4-10.2-17.4-18.7s5-18.7,17.4-18.7c12.1,0,16.9,10,16.9,17.9V140.7z M192.9,133.7h15.6c-0.8-3.6-3-6.9-7.8-6.9
			C196.2,126.7,193.6,130.2,192.9,133.7z"/>
		<path d="M225.8,156v-36.3h8.9v5.9c2.6-4.2,6.6-6.5,10.7-6.5c1.6,0,3,0.3,4.4,0.7l-1.7,8.3c-1.1-0.6-2.2-1-3.7-1
			c-5.2,0-9.7,4.2-9.7,16V156H225.8z"/>
		<path d="M278.4,125l-5.3,4.9c-1.7-2.2-4-3.2-6-3.2c-1.7,0-3.3,1-3.3,3c0,1.6,1.3,2.7,3.5,3.5c5,1.8,13.1,3.4,13.1,11.2
			c0,6.6-5,12.1-12.9,12.1c-7.6,0-12.6-5.3-14.4-9.8l7.1-3.8c1.3,3.5,3.7,6,7.3,6c2.7,0,4.5-1.2,4.5-3.9c0-3-4.7-3.7-9.1-5.5
			c-4-1.7-7.3-4.2-7.3-9.8c0-5.6,4.5-10.6,11.6-10.6C271.9,119.1,276.2,121.5,278.4,125z"/>
		<path d="M320.3,140.7h-25c0.2,4,3,8.2,8.6,8.2c4.1,0,6.6-1.9,8.8-5.6l7.2,2.7c-2.8,6.4-7.7,10.6-16.5,10.6
			c-12.5,0-17.4-10.2-17.4-18.7s5-18.7,17.4-18.7c12.1,0,16.9,10,16.9,17.9V140.7z M295.5,133.7h15.6c-0.8-3.6-3-6.9-7.8-6.9
			C298.9,126.7,296.2,130.2,295.5,133.7z"/>
		<path d="M361.7,146.2c-2.7,6.8-8.4,10.4-16.5,10.4c-11.8,0-17.7-8.5-17.7-18.7c0-10.2,5.9-18.7,17.7-18.7
			c8.1,0,13.8,3.5,16.5,10.4l-8,3.2c-1.9-3.8-4.5-6-8.5-6c-5.6,0-8.4,4.7-8.4,11.1s2.7,11.1,8.4,11.1c4,0,6.6-2.2,8.5-6L361.7,146.2
			z"/>
		<path d="M391.7,155.3c-2,0.9-4,1.3-5.9,1.3c-8.2,0-13.3-4.4-13.3-13.4v-15.8h-5.6v-7.6h5.6v-9.1l8.9-5.6v14.7h9.6v7.6h-9.6V143
			c0,4.5,1.7,5.9,4.8,5.9c1.2,0,2.2-0.2,3.5-0.9L391.7,155.3z"/>
		<path d="M403.2,103.5c3.3,0,5.8,2.5,5.8,5.8s-2.4,5.8-5.8,5.8c-3.3,0-5.8-2.5-5.8-5.8S399.9,103.5,403.2,103.5z M407.6,119.7V156
			h-8.9v-36.3H407.6z"/>
		<path d="M434.7,119.1c11.7,0,18.4,8.2,18.4,18.7c0,10.5-6.8,18.7-18.4,18.7s-18.4-8.2-18.4-18.7
			C416.3,127.3,423,119.1,434.7,119.1z M434.7,148.9c5.8,0,9.1-5.1,9.1-11.1s-3.3-11.1-9.1-11.1c-5.8,0-9.1,5.1-9.1,11.1
			S429,148.9,434.7,148.9z"/>
		<path d="M470.1,119.7v5.8c2.7-3.8,6.6-6.4,11.2-6.4c6.5,0,11.2,3.7,11.2,10.9V156h-8.9v-23.3c0-4.3-2.2-6-5.2-6
			c-4.3,0-8.3,5.2-8.3,14.8V156h-8.9v-36.3H470.1z"/>
		<path d="M501.8,129.2c1.2-6,6.4-10.1,13.8-10.1c8.6,0,15.3,3.6,15.3,15.2V156h-7.3l-0.9-4.6c-2.5,3.1-6,5.2-11.2,5.2
			c-6.2,0-11-3.8-11-11s6.3-11.9,15.5-11.9h6v-1.6c0-4-3-5.3-6.3-5.3c-2.5,0-5.1,0.8-6.3,4.2L501.8,129.2z M513.6,148.9
			c4.1,0,8.4-2.8,8.4-7.5v-0.7h-6c-3.8,0-6.2,1.4-6.2,4.7C509.8,147.1,511,148.9,513.6,148.9z"/>
		<path d="M548.7,105v51h-8.9v-51H548.7z"/>
		<path d="M119.1,241.7c-2,0.9-4,1.3-5.9,1.3c-8.2,0-13.3-4.4-13.3-13.4v-15.8h-5.6v-7.6h5.6V197l8.9-5.6v14.7h9.6v7.6h-9.6v15.7
			c0,4.5,1.7,5.9,4.8,5.9c1.2,0,2.2-0.2,3.5-0.9L119.1,241.7z"/>
		<path d="M135.5,191.4v20.5c2.3-3.7,6.3-6.4,11.5-6.4c6.8,0,11.3,3.5,11.3,10.9v25.9h-8.9v-22.8c0-4.4-1.7-6.5-5.4-6.5
			c-4.1,0-8.5,4.1-8.5,13.9v15.3h-8.9v-51H135.5z"/>
		<path d="M201.3,227.1h-25c0.2,4,3,8.2,8.6,8.2c4.1,0,6.6-1.9,8.8-5.6l7.2,2.7c-2.8,6.4-7.7,10.6-16.5,10.6
			c-12.5,0-17.4-10.2-17.4-18.7c0-8.6,5-18.7,17.4-18.7c12.1,0,16.9,10,16.9,17.9V227.1z M176.5,220.1h15.6c-0.8-3.6-3-6.9-7.8-6.9
			C179.8,213.1,177.2,216.6,176.5,220.1z"/>
		<path d="M226.9,205.5c11.7,0,18.4,8.2,18.4,18.7c0,10.5-6.8,18.7-18.4,18.7s-18.4-8.2-18.4-18.7
			C208.5,213.7,215.3,205.5,226.9,205.5z M226.9,235.3c5.8,0,9.1-5.1,9.1-11.1s-3.3-11.1-9.1-11.1c-5.8,0-9.1,5.1-9.1,11.1
			S221.2,235.3,226.9,235.3z"/>
		<path d="M253.2,242.4v-36.3h8.9v5.9c2.6-4.2,6.6-6.5,10.7-6.5c1.6,0,3,0.3,4.4,0.7l-1.7,8.3c-1.1-0.6-2.2-1-3.7-1
			c-5.2,0-9.7,4.2-9.7,16v12.9H253.2z"/>
		<path d="M290.1,206.1l8.4,22.8l7.9-22.8h8.9l-18.7,51H288l6.3-17l-13.2-34H290.1z"/>
	</g>
	<g>
		<path d="M128.1,395.7c-0.8,1.7-2.4,2.4-4.2,2.4c-3.6,0-6.8-2.8-6.8-8.6s3.1-8.6,6.9-8.6c3.3,0,5.3,2.1,6,5.1l-2,0.6
			c-0.7-2.4-1.9-3.7-4-3.7c-2.9,0-4.8,2-4.8,6.6c0,4.6,1.9,6.6,4.8,6.6c2.3,0,3.6-1.7,3.8-4.6H124v-2h6v8.5h-1.8L128.1,395.7z"/>
		<path d="M143.7,381.2v2h-8.5v4.8h7.3v2h-7.3v5.9h8.8v2h-10.9v-16.8H143.7z"/>
		<path d="M158.9,381.2V398h-2.3l-7-13v13h-2.1v-16.8h2.3l7,13v-13H158.9z"/>
		<path d="M166.8,381.2c4.4,0,7.5,2.7,7.5,8.4s-3.1,8.4-7.5,8.4h-4.2v-16.8H166.8z M164.6,383.2V396h1.9c3.3,0,5.4-1.7,5.4-6.4
			c0-4.7-2.1-6.4-5.4-6.4H164.6z"/>
		<path d="M188.4,381.2v2h-8.5v4.8h7.3v2h-7.3v5.9h8.8v2h-10.9v-16.8H188.4z"/>
		<path d="M197.2,390.1h-2.8v7.9h-2.1v-16.8h5.9c3,0,4.9,1.5,4.9,4.4c0,2.5-1.3,3.8-3.5,4.3l5,8.1h-2.5L197.2,390.1z M194.4,383.2
			v4.8h3.8c1.8,0,2.7-0.7,2.7-2.4c0-1.7-1-2.4-2.7-2.4H194.4z"/>
	</g>
	<g>
		<path d="M502.8,318.1H500v7.9h-2.1v-16.8h5.9c3,0,4.9,1.5,4.9,4.4c0,2.5-1.3,3.8-3.5,4.3l5,8.1h-2.5L502.8,318.1z M500,311.2v4.8
			h3.8c1.8,0,2.7-0.7,2.7-2.4c0-1.7-1-2.4-2.7-2.4H500z"/>
		<path d="M519.3,309.2l6,16.8h-2.2l-1.5-4.5H515l-1.5,4.5h-2.2l6-16.8H519.3z M515.7,319.5h5.2l-2.6-7.6L515.7,319.5z"/>
		<path d="M539.9,321.1c-0.7,3-2.8,5.1-6,5.1c-3.8,0-6.9-2.8-6.9-8.6s3.1-8.6,6.9-8.6c3.2,0,5.3,2.1,6,5.1l-2,0.6
			c-0.7-2.4-1.9-3.7-4-3.7c-2.9,0-4.8,2-4.8,6.6c0,4.6,1.9,6.6,4.8,6.6c2.1,0,3.3-1.2,4-3.7L539.9,321.1z"/>
		<path d="M553.5,309.2v2h-8.5v4.8h7.3v2h-7.3v5.9h8.8v2h-10.9v-16.8H553.5z"/>
	</g>
	<g>
		<path d="M672.1,297.1c-0.7,3-2.8,5.1-6,5.1c-3.8,0-6.9-2.8-6.9-8.6s3.1-8.6,6.9-8.6c3.2,0,5.3,2.1,6,5.1l-2,0.6
			c-0.7-2.4-1.9-3.7-4-3.7c-2.9,0-4.8,2-4.8,6.6c0,4.6,1.9,6.6,4.8,6.6c2.1,0,3.3-1.2,4-3.7L672.1,297.1z"/>
		<path d="M676.1,302v-16.8h2.1V300h8.6v2H676.1z"/>
		<path d="M696.2,285.2l6,16.8H700l-1.5-4.5h-6.6l-1.5,4.5h-2.2l6-16.8H696.2z M692.6,295.5h5.2l-2.6-7.6L692.6,295.5z"/>
		<path d="M713.7,289.5c-0.7-1.7-1.8-2.5-3.4-2.5c-1.8,0-3,0.9-3,2.6c0,1.8,1.7,2.3,3.9,2.9c2.6,0.7,4.8,1.4,4.8,4.4
			c0,3.7-2.3,5.4-5.6,5.4c-3.2,0-5.6-1.7-6.3-5l2-0.8c0.6,2.3,1.9,3.7,4.3,3.7c2,0,3.5-1,3.5-3c0-1.8-1.3-2.1-3.8-2.7
			c-2.4-0.6-4.8-1.3-4.8-4.7c0-2.7,1.8-4.7,5.1-4.7c2.9,0,4.6,1.8,5.3,3.6L713.7,289.5z"/>
		<path d="M728.5,289.5c-0.7-1.7-1.8-2.5-3.4-2.5c-1.8,0-3,0.9-3,2.6c0,1.8,1.7,2.3,3.9,2.9c2.6,0.7,4.8,1.4,4.8,4.4
			c0,3.7-2.3,5.4-5.6,5.4c-3.2,0-5.6-1.7-6.3-5l2-0.8c0.6,2.3,1.9,3.7,4.3,3.7c2,0,3.5-1,3.5-3c0-1.8-1.3-2.1-3.8-2.7
			c-2.4-0.6-4.8-1.3-4.8-4.7c0-2.7,1.8-4.7,5.1-4.7c2.9,0,4.6,1.8,5.3,3.6L728.5,289.5z"/>
	</g>
	<g>
		<path d="M683.4,201.2l6,16.8h-2.2l-1.5-4.5h-6.6l-1.5,4.5h-2.2l6-16.8H683.4z M679.8,211.5h5.2l-2.6-7.6L679.8,211.5z"/>
		<path d="M698.1,201.2c3,0,4.8,1.6,4.8,4.3c0,1.5-0.9,2.7-1.9,3.3c1.6,0.6,2.8,2.1,2.8,4.2c0,3.1-2,5-5.2,5h-6.3v-16.8H698.1z
			 M694.3,203.2v4.8h3.7c1.6,0,2.6-0.8,2.6-2.4c0-1.6-1.1-2.4-2.6-2.4H694.3z M694.3,216h3.9c2.2,0,3.4-0.9,3.4-3c0-2-1.1-3-3.4-3
			h-3.9V216z"/>
		<path d="M707.1,218v-1.8h4.1V203h-4.1v-1.8h10.2v1.8h-4.1v13.2h4.1v1.8H707.1z"/>
		<path d="M722.8,218v-16.8h2.1V216h8.6v2H722.8z"/>
		<path d="M736.8,218v-1.8h4.1V203h-4.1v-1.8h10.2v1.8H743v13.2h4.1v1.8H736.8z"/>
		<path d="M750.6,201.2h12.6v2h-5.2V218h-2.1v-14.8h-5.2V201.2z"/>
		<path d="M765.3,201.2h2.3l4.1,8.1l4.1-8.1h2.3l-5.4,10.2v6.6h-2.1v-6.6L765.3,201.2z"/>
	</g>
	<g>
		<path d="M446,613.6c0,5.8-2.9,8.6-6.5,8.6s-6.5-2.8-6.5-8.6c0-5.8,2.9-8.6,6.5-8.6S446,607.8,446,613.6z M435.1,613.6
			c0,4.8,1.9,6.6,4.3,6.6c2.5,0,4.3-1.8,4.3-6.6c0-4.8-1.9-6.6-4.3-6.6C437,607,435.1,608.8,435.1,613.6z"/>
		<path d="M453.7,614.1h-2.8v7.9h-2.1v-16.8h5.9c3,0,4.9,1.5,4.9,4.4c0,2.5-1.3,3.8-3.5,4.3l5,8.1h-2.5L453.7,614.1z M450.9,607.2
			v4.8h3.8c1.8,0,2.7-0.7,2.7-2.4c0-1.7-1-2.4-2.7-2.4H450.9z"/>
		<path d="M464.1,622v-1.8h4.1V607h-4.1v-1.8h10.2v1.8h-4.1v13.2h4.1v1.8H464.1z"/>
		<path d="M489.5,605.2v2h-8.5v4.8h7.3v2h-7.3v5.9h8.8v2h-10.9v-16.8H489.5z"/>
		<path d="M504.7,605.2V622h-2.3l-7-13v13h-2.1v-16.8h2.3l7,13v-13H504.7z"/>
		<path d="M507.6,605.2h12.6v2h-5.2V622h-2.1v-14.8h-5.2V605.2z"/>
		<path d="M529.7,605.2l6,16.8h-2.2l-1.5-4.5h-6.6l-1.5,4.5h-2.2l6-16.8H529.7z M526.1,615.5h5.2l-2.6-7.6L526.1,615.5z"/>
		<path d="M537.3,605.2h12.6v2h-5.2V622h-2.1v-14.8h-5.2V605.2z"/>
		<path d="M553.4,622v-1.8h4.1V607h-4.1v-1.8h10.2v1.8h-4.1v13.2h4.1v1.8H553.4z"/>
		<path d="M579.9,613.6c0,5.8-2.9,8.6-6.5,8.6s-6.5-2.8-6.5-8.6c0-5.8,2.9-8.6,6.5-8.6S579.9,607.8,579.9,613.6z M569,613.6
			c0,4.8,1.9,6.6,4.3,6.6c2.5,0,4.3-1.8,4.3-6.6c0-4.8-1.9-6.6-4.3-6.6C570.9,607,569,608.8,569,613.6z"/>
		<path d="M594,605.2V622h-2.3l-7-13v13h-2.1v-16.8h2.3l7,13v-13H594z"/>
	</g>
	<g>
		<path d="M70.8,571.1H68v7.9h-2.1v-16.8h5.9c3,0,4.9,1.5,4.9,4.4c0,2.5-1.3,3.8-3.5,4.3l5,8.1h-2.5L70.8,571.1z M68,564.2v4.8h3.8
			c1.8,0,2.7-0.7,2.7-2.4c0-1.7-1-2.4-2.7-2.4H68z"/>
		<path d="M91.7,562.2v2h-8.5v4.8h7.3v2h-7.3v5.9H92v2H81.1v-16.8H91.7z"/>
		<path d="M97,579v-16.8h2.1V577h8.6v2H97z"/>
		<path d="M111,579v-1.8h4.1V564H111v-1.8h10.2v1.8h-4.1v13.2h4.1v1.8H111z"/>
		<path d="M135.6,576.7c-0.8,1.7-2.4,2.4-4.2,2.4c-3.6,0-6.8-2.8-6.8-8.6s3.1-8.6,6.9-8.6c3.3,0,5.3,2.1,6,5.1l-2,0.6
			c-0.7-2.4-1.9-3.7-4-3.7c-2.9,0-4.8,2-4.8,6.6c0,4.6,1.9,6.6,4.8,6.6c2.3,0,3.6-1.7,3.8-4.6h-3.8v-2h6v8.5h-1.8L135.6,576.7z"/>
		<path d="M140.7,579v-1.8h4.1V564h-4.1v-1.8H151v1.8h-4.1v13.2h4.1v1.8H140.7z"/>
		<path d="M167.2,570.6c0,5.8-2.9,8.6-6.5,8.6c-3.6,0-6.5-2.8-6.5-8.6c0-5.8,2.9-8.6,6.5-8.6C164.4,562,167.2,564.8,167.2,570.6z
			 M156.4,570.6c0,4.8,1.9,6.6,4.3,6.6c2.5,0,4.3-1.8,4.3-6.6c0-4.8-1.9-6.6-4.3-6.6C158.2,564,156.4,565.8,156.4,570.6z"/>
		<path d="M181.3,562.2V579H179l-7-13v13h-2.1v-16.8h2.3l7,13v-13H181.3z"/>
	</g>
	<g>
		<path d="M755.1,431.1c-0.7,3-2.8,5.1-6,5.1c-3.8,0-6.9-2.8-6.9-8.6s3.1-8.6,6.9-8.6c3.2,0,5.3,2.1,6,5.1l-2,0.6
			c-0.7-2.4-1.9-3.7-4-3.7c-2.9,0-4.8,2-4.8,6.6c0,4.6,1.9,6.6,4.8,6.6c2.1,0,3.3-1.2,4-3.7L755.1,431.1z"/>
		<path d="M764.3,419.2l6,16.8h-2.2l-1.5-4.5H760l-1.5,4.5h-2.2l6-16.8H764.3z M760.7,429.5h5.2l-2.6-7.6L760.7,429.5z"/>
		<path d="M781.8,423.5c-0.7-1.7-1.8-2.5-3.4-2.5c-1.8,0-3,0.9-3,2.6c0,1.8,1.7,2.3,3.9,2.9c2.6,0.7,4.8,1.4,4.8,4.4
			c0,3.7-2.3,5.4-5.6,5.4c-3.2,0-5.6-1.7-6.3-5l2-0.8c0.6,2.3,1.9,3.7,4.3,3.7c2,0,3.5-1,3.5-3c0-1.8-1.3-2.1-3.8-2.7
			c-2.4-0.6-4.8-1.3-4.8-4.7c0-2.7,1.8-4.7,5.1-4.7c2.9,0,4.6,1.8,5.3,3.6L781.8,423.5z"/>
		<path d="M786.8,419.2h12.6v2h-5.2V436H792v-14.8h-5.2V419.2z"/>
		<path d="M813.4,419.2v2h-8.5v4.8h7.3v2h-7.3v5.9h8.8v2h-10.9v-16.8H813.4z"/>
	</g>
	<g>
		<path d="M301.4,545.2l6,16.8h-2.2l-1.5-4.5h-6.6l-1.5,4.5h-2.2l6-16.8H301.4z M297.8,555.5h5.2l-2.6-7.6L297.8,555.5z"/>
		<path d="M320,559.7c-0.8,1.7-2.4,2.4-4.2,2.4c-3.6,0-6.8-2.8-6.8-8.6s3.1-8.6,6.9-8.6c3.3,0,5.3,2.1,6,5.1l-2,0.6
			c-0.7-2.4-1.9-3.7-4-3.7c-2.9,0-4.8,2-4.8,6.6c0,4.6,1.9,6.6,4.8,6.6c2.3,0,3.6-1.7,3.8-4.6h-3.8v-2h6v8.5h-1.8L320,559.7z"/>
		<path d="M335.6,545.2v2h-8.5v4.8h7.3v2h-7.3v5.9h8.8v2h-10.9v-16.8H335.6z"/>
	</g>
	<g>
		<path d="M499.2,470.2V487h-2.3l-7-13v13h-2.1v-16.8h2.3l7,13v-13H499.2z"/>
		<path d="M509.3,470.2l6,16.8h-2.2l-1.5-4.5H505l-1.5,4.5h-2.2l6-16.8H509.3z M505.7,480.5h5.2l-2.6-7.6L505.7,480.5z"/>
		<path d="M516.9,470.2h12.6v2h-5.2V487h-2.1v-14.8h-5.2V470.2z"/>
		<path d="M533,487v-1.8h4.1V472H533v-1.8h10.2v1.8h-4.1v13.2h4.1v1.8H533z"/>
		<path d="M559.5,478.6c0,5.8-2.9,8.6-6.5,8.6s-6.5-2.8-6.5-8.6c0-5.8,2.9-8.6,6.5-8.6S559.5,472.8,559.5,478.6z M548.6,478.6
			c0,4.8,1.9,6.6,4.3,6.6c2.5,0,4.3-1.8,4.3-6.6c0-4.8-1.9-6.6-4.3-6.6C550.5,472,548.6,473.8,548.6,478.6z"/>
		<path d="M573.6,470.2V487h-2.3l-7-13v13h-2.1v-16.8h2.3l7,13v-13H573.6z"/>
		<path d="M583.7,470.2l6,16.8h-2.2l-1.5-4.5h-6.6l-1.5,4.5h-2.2l6-16.8H583.7z M580.1,480.5h5.2l-2.6-7.6L580.1,480.5z"/>
		<path d="M593.4,487v-16.8h2.1V485h8.6v2H593.4z"/>
		<path d="M607.4,487v-1.8h4.1V472h-4.1v-1.8h10.2v1.8h-4.1v13.2h4.1v1.8H607.4z"/>
		<path d="M621.1,470.2h12.6v2h-5.2V487h-2.1v-14.8h-5.2V470.2z"/>
		<path d="M635.8,470.2h2.3l4.1,8.1l4.1-8.1h2.3l-5.4,10.2v6.6h-2.1v-6.6L635.8,470.2z"/>
	</g>
</g>
</svg>
